<?xml version="1.0" encoding="UTF-8"?>
<svg width="398px" height="259px" viewBox="0 0 398 259" version="1.1" xmlns="http://www.w3.org/2000/svg" xmlns:xlink="http://www.w3.org/1999/xlink">
    <g id="Commons" stroke="none" stroke-width="1" fill="none" fill-rule="evenodd" transform="translate(0.000000, -680.000000)" opacity="0.5">
        <g id="Page-1" transform="translate(-78.000000, 680.000000)" fill="#F7CAC9">
            <path d="M4.65239437,15.72825 L96.5284507,62.28975 C98.8540845,63.47775 101.598873,63.47775 103.924507,62.28975 L192.102535,17.598 L280.280563,62.28975 C282.606197,63.47775 285.350986,63.47775 287.67662,62.28975 L375.88169,17.598 L464.08,62.28975 C465.269859,62.89725 466.540845,63.1875 467.778028,63.1875 C470.766197,63.1875 473.619155,61.554 475.065915,58.7325 C477.100845,54.723 475.518873,49.8225 471.476056,47.79075 L379.6,1.2225 C377.281127,0.04125 374.529577,0.04125 372.210704,1.2225 L284.005634,45.91425 L195.827606,1.2225 C193.501972,0.04125 190.757183,0.04125 188.431549,1.2225 L100.253521,45.91425 L12.0484507,1.1685 C8.03267606,-0.8565 3.12450704,0.723 1.08957746,4.7595 C-0.972394366,8.769 0.643380282,13.6695 4.65239437,15.72825 Z" id="Fill-1"></path>
            <path d="M471.421972,112.94175 L379.552676,66.38025 C377.227042,65.19225 374.482254,65.19225 372.15662,66.38025 L283.951549,111.072 L195.773521,66.38025 C193.447887,65.19225 190.703099,65.19225 188.377465,66.38025 L100.199437,111.072 L12.0484507,66.38025 C8.03267606,64.3215 3.12450704,65.928 1.08957746,69.9645 C-0.945352113,73.974 0.643380282,78.8745 4.67943662,80.90625 L96.555493,127.46775 C98.8811268,128.65575 101.625915,128.65575 103.951549,127.46775 L192.129577,82.776 L280.307606,127.46775 C282.633239,128.65575 285.378028,128.65575 287.703662,127.46775 L375.901972,82.776 L464.107042,127.46775 C465.296901,128.07525 466.567887,128.3655 467.80507,128.3655 C470.793239,128.3655 473.639437,126.732 475.092958,123.9105 C477.073803,119.874 475.464789,114.9735 471.421972,112.94175 Z" id="Fill-2"></path>
            <path d="M471.421972,178.11975 L379.552676,131.55825 C377.227042,130.39725 374.482254,130.39725 372.15662,131.55825 L283.951549,176.25 L195.773521,131.55825 C193.447887,130.39725 190.703099,130.39725 188.377465,131.55825 L100.199437,176.25 L12.0484507,131.55825 C8.03267606,129.5265 3.12450704,131.133 1.08957746,135.1425 C-0.945352113,139.152 0.643380282,144.0525 4.67943662,146.08425 L96.555493,192.6525 C98.8811268,193.83375 101.625915,193.83375 103.951549,192.6525 L192.129577,147.96075 L280.307606,192.6525 C282.633239,193.83375 285.378028,193.83375 287.703662,192.6525 L375.901972,147.96075 L464.107042,192.6525 C465.296901,193.26 466.567887,193.5435 467.80507,193.5435 C470.793239,193.5435 473.639437,191.91 475.092958,189.0885 C477.073803,185.08575 475.464789,180.1515 471.421972,178.11975 Z" id="Fill-3"></path>
            <path d="M471.421972,243.3315 L379.552676,196.76325 C377.227042,195.57525 374.482254,195.57525 372.15662,196.76325 L283.951549,241.455 L195.773521,196.76325 C193.447887,195.57525 190.703099,195.57525 188.377465,196.76325 L100.199437,241.455 L12.0484507,196.76325 C8.03267606,194.7315 3.12450704,196.31775 1.08957746,200.3475 C-0.945352113,204.357 0.643380282,209.26425 4.67943662,211.28925 L96.555493,257.8575 C98.8811268,259.0455 101.625915,259.0455 103.951549,257.8575 L192.129577,213.16575 L280.307606,257.8575 C282.633239,259.0455 285.378028,259.0455 287.703662,257.8575 L375.901972,213.16575 L464.107042,257.8575 C465.296901,258.465 466.567887,258.75525 467.80507,258.75525 C470.793239,258.75525 473.639437,257.115 475.092958,254.2935 C477.073803,250.26375 475.464789,245.3565 471.421972,243.3315 Z" id="Fill-4"></path>
        </g>
    </g>
</svg>