<?xml version="1.0" encoding="UTF-8"?>
<svg width="120px" height="120px" viewBox="0 0 120 120" version="1.1" xmlns="http://www.w3.org/2000/svg" xmlns:xlink="http://www.w3.org/1999/xlink">
    <!-- Generator: Sketch 48.1 (47250) - http://www.bohemiancoding.com/sketch -->
    <title>Group 18</title>
    <desc>Created with Sketch.</desc>
    <defs></defs>
    <g id="Commons" stroke="none" stroke-width="1" fill="none" fill-rule="evenodd" transform="translate(0.000000, -5617.000000)">
        <g id="Group-18" transform="translate(0.000000, 5617.000000)">
            <rect id="Rectangle-6" fill="#222222" x="0" y="0" width="120" height="120"></rect>
            <g id="Group-14" transform="translate(28.000000, 35.000000)">
                <path d="M48,16.8927039 L47.1759657,16.9613734 C46.5808268,14.7639375 45.6881318,12.7038723 44.4978541,10.7811159 C43.3075763,8.85835948 41.8998651,7.18741768 40.2746781,5.76824034 C38.6494912,4.349063 36.8183221,3.22747193 34.7811159,2.40343348 C32.7439097,1.57939502 30.5808412,1.16738197 28.2918455,1.16738197 C25.1330314,1.16738197 22.3176089,1.87696 19.8454936,3.29613734 C17.3733782,4.71531468 15.3018682,6.592263 13.6309013,8.92703863 C11.9599344,11.2618142 10.6781161,13.9055646 9.78540773,16.8583691 C8.8926994,19.8111736 8.44635193,22.8440474 8.44635193,25.9570815 C8.44635193,29.2532354 8.91558901,32.3433332 9.85407725,35.2274678 C10.7925655,38.1116024 12.1316079,40.6180151 13.8712446,42.7467811 C15.6108814,44.8755471 17.7167258,46.5579337 20.1888412,47.7939914 C22.6609566,49.0300491 25.4077102,49.6480687 28.4291845,49.6480687 C30.8097401,49.6480687 33.0414774,49.213166 35.1244635,48.3433476 C37.2074496,47.4735293 39.0615083,46.3290486 40.6866953,44.9098712 C42.3118822,43.4906939 43.6852591,41.8540865 44.806867,40 C45.9284748,38.1459135 46.6952769,36.2346307 47.1072961,34.2660944 L47.9313305,34.2660944 L47.7253219,49.3733906 L46.9012876,49.3733906 C46.3519286,48.595132 45.7796882,47.885554 45.1845494,47.2446352 C44.5894105,46.6037164 44.1773974,46.2832618 43.9484979,46.2832618 C43.856938,46.2832618 43.444925,46.5236027 42.7124464,47.0042918 C41.9799677,47.4849809 40.9270455,48.0114421 39.5536481,48.583691 C38.1802506,49.1559399 36.5093088,49.6595114 34.5407725,50.0944206 C32.5722362,50.5293298 30.3061645,50.7467811 27.7424893,50.7467811 C23.4849573,50.7467811 19.6395021,50.1402064 16.2060086,48.9270386 C12.772515,47.7138709 9.85408927,45.9971499 7.45064378,43.776824 C5.04719828,41.5564982 3.20458438,38.901303 1.92274678,35.8111588 C0.640909185,32.7210146 0,29.321907 0,25.6137339 C0,24.7896955 0.0572240343,23.8512213 0.17167382,22.7982833 C0.286123605,21.7453452 0.492130129,20.6237542 0.789699571,19.4334764 C1.08726901,18.2431986 1.49928206,16.9957147 2.02575107,15.6909871 C2.55222009,14.3862596 3.22746369,13.0701068 4.05150215,11.7424893 C5.01288034,10.1859722 6.20314026,8.6981473 7.6223176,7.27896996 C9.04149494,5.85979262 10.7124367,4.61230867 12.6351931,3.53648069 C14.5579495,2.4606527 16.7324628,1.60229219 19.1587983,0.961373391 C21.5851337,0.320454592 24.3089978,0 27.3304721,0 C30.077267,0 32.4806764,0.251785751 34.5407725,0.755364807 C36.6008687,1.25894386 38.3175897,1.80829459 39.6909871,2.40343348 C41.0643845,2.99857236 42.1173068,3.54792309 42.8497854,4.05150215 C43.582264,4.5550812 43.9942771,4.80686695 44.0858369,4.80686695 C44.1773967,4.80686695 44.3490688,4.70386369 44.6008584,4.49785408 C44.8526479,4.29184446 45.1273233,4.04005871 45.4248927,3.74248927 C45.7224621,3.44491983 46.0314719,3.10157562 46.3519313,2.71244635 C46.6723907,2.32331708 46.9699557,1.92274884 47.2446352,1.51072961 L48,1.51072961 L48,16.8927039 Z" id="C" fill="#FFFFFF"></path>
                <circle id="Oval-3" fill="#F7CAC9" cx="64" cy="42" r="8"></circle>
            </g>
        </g>
    </g>
</svg>